<svg xmlns="http://www.w3.org/2000/svg" viewBox="0 0 512 512" width="100%" height="100%">
  <!-- Deep dark gradient background matching the Remix 1.7 theme -->
  <defs>
    <radialGradient id="bgGrad" cx="50%" cy="50%" r="50%" fx="50%" fy="50%">
      <stop offset="0%" stop-color="#18181b" />
      <stop offset="100%" stop-color="#09090b" />
    </radialGradient>
    
    <!-- Neon purple-violet glowing gradient -->
    <linearGradient id="purpleGrad" x1="0%" y1="0%" x2="100%" y2="100%">
      <stop offset="0%" stop-color="#a855f7" />
      <stop offset="50%" stop-color="#8b5cf6" />
      <stop offset="100%" stop-color="#6366f1" />
    </linearGradient>

    <!-- Drop shadow for the central symbol -->
    <filter id="glow" x="-20%" y="-20%" width="140%" height="140%">
      <feDropShadow dx="0" dy="8" stdDeviation="12" flood-color="#8b5cf6" flood-opacity="0.3" />
    </filter>
  </defs>

  <!-- Background -->
  <rect width="100%" height="100%" rx="128" fill="url(#bgGrad)" />
  <rect width="96%" height="96%" x="2%" y="2%" rx="120" fill="none" stroke="#27272a" stroke-width="4" opacity="0.5" />

  <!-- High-Tech Geometric Logo Icon representing evolution & high performance -->
  <g filter="url(#glow)" transform="translate(128, 128) scale(0.5)">
    <!-- Outer energy ring -->
    <circle cx="256" cy="256" r="220" fill="none" stroke="url(#purpleGrad)" stroke-width="16" stroke-dasharray="40 20 80 40" transform="rotate(-45 256 256)" />
    
    <!-- Inner complex geometric star/gear symbolizing precision and the Remix engine -->
    <path d="M256,40 L290,140 L390,110 L330,190 L420,256 L330,322 L390,402 L290,372 L256,472 L222,372 L122,402 L182,322 L92,256 L182,190 L122,110 L222,140 Z" 
          fill="url(#purpleGrad)" />

    <!-- Core focus circle representation of personal alignment -->
    <circle cx="256" cy="256" r="70" fill="#09090b" stroke="#ffffff" stroke-width="8" />
    <circle cx="256" cy="256" r="30" fill="url(#purpleGrad)" />
  </g>
</svg>
